<svg viewBox="0 0 640 420" xmlns="http://www.w3.org/2000/svg">
  <defs>
    <linearGradient id="barGradient" x1="0" y1="0" x2="0" y2="1">
      <stop offset="0%" stop-color="#5468D8" />
      <stop offset="100%" stop-color="#2FC6C4" />
    </linearGradient>
    <linearGradient id="flightGradient" x1="0" y1="1" x2="1" y2="0">
      <stop offset="0%" stop-color="#2FC6C4" />
      <stop offset="100%" stop-color="#4FE0B8" />
    </linearGradient>
  </defs>

  <rect x="120" y="220" width="72" height="130" rx="16" fill="url(#barGradient)" />
  <rect x="120" y="350" width="72" height="46" rx="10" fill="#B9C6E8" opacity="0.45" />

  <rect x="228" y="150" width="72" height="200" rx="16" fill="url(#barGradient)" />
  <rect x="228" y="350" width="72" height="46" rx="10" fill="#B9C6E8" opacity="0.45" />

  <rect x="336" y="68" width="72" height="282" rx="16" fill="url(#barGradient)" />
  <rect x="336" y="350" width="72" height="46" rx="10" fill="#B9C6E8" opacity="0.45" />

  <path
    d="M 96 268 C 200 300, 300 296, 372 250 C 420 220, 455 165, 478 108"
    fill="none"
    stroke="url(#flightGradient)"
    stroke-width="14"
    stroke-linecap="round"
  />

  <g transform="translate(400,155) rotate(-32)">
    <path d="M 100 0 L 0 -34 L 28 0 Z" fill="url(#flightGradient)" />
    <path d="M 100 0 L 28 0 L 0 22 Z" fill="#279E9E" />
  </g>
</svg>
